<svg width="25" height="25" viewBox="0 0 25 25" fill="none" xmlns="http://www.w3.org/2000/svg">
<path d="M4.80005 1H20.3C22.65 1 24.55 2.9 24.55 5.25V20.15C24.55 22.5 22.65 24.4 20.3 24.4H4.80005C2.45005 24.4 0.550049 22.5 0.550049 20.15V5.25C0.550049 2.9 2.45005 1 4.80005 1Z" fill="#00005B"/>
<path d="M10.19 15H6.47L5.71 17.36C5.69 17.45 5.61 17.51 5.52 17.5H3.64C3.53 17.5 3.5 17.44 3.53 17.32L6.75 8.08999C6.78 7.98999 6.81 7.89999 6.85 7.77999C6.89 7.56999 6.91 7.34999 6.91 7.12999C6.9 7.07999 6.94 7.02999 6.99 7.01999H7.02H9.58C9.65 7.01999 9.7 7.04999 9.71 7.09999L13.36 17.3C13.39 17.41 13.36 17.46 13.26 17.46H11.17C11.1 17.47 11.03 17.42 11.01 17.35L10.19 14.95V15ZM7.05 13.01H9.59C9.53 12.8 9.45 12.55 9.36 12.29C9.27 12.02 9.18 11.73 9.09 11.43C8.99 11.12 8.9 10.82 8.8 10.51C8.7 10.2 8.61 9.90999 8.53 9.61999C8.45 9.33999 8.38 9.07999 8.31 8.83999H8.29C8.2 9.26999 8.09 9.69999 7.95 10.13C7.8 10.61 7.65 11.11 7.49 11.61C7.36 12.12 7.2 12.59 7.05 13.01Z" fill="#9999FF"/>
<path d="M19.2501 14.1H16.0801C16.1201 14.41 16.2201 14.72 16.3901 14.99C16.5701 15.26 16.8201 15.47 17.1201 15.59C17.5201 15.76 17.9601 15.85 18.4001 15.84C18.7501 15.83 19.1001 15.8 19.4401 15.73C19.7501 15.69 20.0501 15.61 20.3301 15.5C20.3801 15.46 20.4101 15.48 20.4101 15.58V17.11C20.4101 17.15 20.4001 17.19 20.3901 17.23C20.3701 17.26 20.3501 17.28 20.3201 17.3C20.0001 17.44 19.6701 17.54 19.3201 17.6C18.8501 17.69 18.3801 17.73 17.9001 17.72C17.1401 17.72 16.5001 17.6 15.9801 17.37C15.4901 17.16 15.0601 16.83 14.7201 16.42C14.4001 16.03 14.1701 15.59 14.0301 15.11C13.8901 14.64 13.8201 14.15 13.8201 13.65C13.8201 13.11 13.9001 12.58 14.0701 12.06C14.2301 11.56 14.4801 11.1 14.8201 10.69C15.1501 10.29 15.5601 9.97 16.0301 9.74C16.5001 9.51 17.0601 9.43 17.7001 9.43C18.2301 9.42 18.7601 9.52 19.2501 9.74C19.6601 9.92 20.0201 10.19 20.3001 10.54C20.5601 10.88 20.7701 11.26 20.9001 11.68C21.0301 12.08 21.0901 12.49 21.0901 12.9C21.0901 13.14 21.0801 13.35 21.0701 13.54C21.0501 13.73 21.0401 13.87 21.0301 13.96C21.0201 14.03 20.9601 14.09 20.8901 14.09C20.8301 14.09 20.7201 14.1 20.5601 14.11C20.4001 14.13 20.2101 14.14 19.9801 14.14C19.7501 14.14 19.5101 14.1 19.2501 14.1ZM16.0801 12.64H18.1901C18.4501 12.64 18.6401 12.64 18.7601 12.63C18.8401 12.62 18.9201 12.6 18.9901 12.55V12.45C18.9901 12.32 18.9701 12.2 18.9301 12.08C18.7501 11.52 18.2201 11.14 17.6301 11.16C17.0801 11.13 16.5601 11.42 16.3001 11.92C16.1801 12.15 16.1101 12.39 16.0801 12.64Z" fill="#9999FF"/>
</svg>
