<svg width="12" height="12" viewBox="0 0 12 12" fill="none" xmlns="http://www.w3.org/2000/svg">
<g clip-path="url(#clip0_4_294)">
<rect width="12" height="12" fill="#FAFDF6"/>
<path d="M5.19381 2.72894C3.96422 2.96892 2.97338 3.95728 2.73092 5.18315C2.27323 7.49633 4.36006 9.22071 5.9323 8.97702C6.44195 8.89785 6.69182 8.30162 6.45803 7.84269C6.17228 7.2811 6.58049 6.62549 7.21137 6.62549H8.19726C8.64011 6.62549 8.99884 6.25933 9.00008 5.81773C8.9939 3.86822 7.22003 2.33434 5.19381 2.72894ZM3.85413 6.62549C3.63517 6.62549 3.45828 6.4486 3.45828 6.22965C3.45828 6.0107 3.63517 5.83381 3.85413 5.83381C4.07308 5.83381 4.24997 6.0107 4.24997 6.22965C4.24997 6.4486 4.07308 6.62549 3.85413 6.62549ZM4.24997 5.04213C4.03102 5.04213 3.85413 4.86524 3.85413 4.64629C3.85413 4.42734 4.03102 4.25045 4.24997 4.25045C4.46892 4.25045 4.64581 4.42734 4.64581 4.64629C4.64581 4.86524 4.46892 5.04213 4.24997 5.04213ZM5.83334 4.25045C5.61439 4.25045 5.4375 4.07356 5.4375 3.85461C5.4375 3.63566 5.61439 3.45877 5.83334 3.45877C6.05229 3.45877 6.22918 3.63566 6.22918 3.85461C6.22918 4.07356 6.05229 4.25045 5.83334 4.25045ZM7.41671 5.04213C7.19776 5.04213 7.02087 4.86524 7.02087 4.64629C7.02087 4.42734 7.19776 4.25045 7.41671 4.25045C7.63566 4.25045 7.81255 4.42734 7.81255 4.64629C7.81255 4.86524 7.63566 5.04213 7.41671 5.04213Z" fill="#111111"/>
</g>
<defs>
<clipPath id="clip0_4_294">
<rect width="12" height="12" rx="6" fill="white"/>
</clipPath>
</defs>
</svg>
