<?xml version="1.0" encoding="UTF-8"?>
<svg id="Layer_1" data-name="Layer 1" xmlns="http://www.w3.org/2000/svg" viewBox="0 0 17.0081 20.928">
  <defs>
    <style>
      .cls-1 {
        fill: #fff;
        stroke-width: 0px;
      }
    </style>
  </defs>
  <path class="cls-1" d="M13.9285,11.7033h.9205v1.5151c-.443.3267-.9937.6608-1.648,1.0021-.6543.3432-1.3757.6316-2.1641.867s-1.6134.3541-2.4791.3541c-1.7099,0-3.2065-.3067-4.4908-.9218-1.2832-.6151-2.282-1.495-2.9962-2.6413s-1.0709-2.5208-1.0709-4.1226c0-1.5817.3698-2.9525,1.1105-4.1116.7397-1.16,1.7587-2.0572,3.0572-2.6924,1.2985-.6343,2.7829-.9519,4.4552-.9519.6076,0,1.2842.0438,2.032.1296.7458.0867,1.4671.188,2.1641.3039.695.1168,1.268.2218,1.7191.3149v4.1764h-1.7089l-.5771-1.9741c-.0224-.0794-.0935-.1643-.2154-.2537s-.2235-.1542-.3048-.1944c-.3861-.1926-.7783-.3559-1.1765-.4883-.4003-.1333-.8595-.1999-1.3777-.1999-1.5017,0-2.7036.4472-3.6068,1.3407-.9022.8944-1.3533,2.2616-1.3533,4.1025,0,1.9212.4938,3.3797,1.4813,4.3763s2.3287,1.495,4.0234,1.495c.6665,0,1.266-.0821,1.8024-.2446s1.0079-.3559,1.4102-.5786.7336-.4235.9937-.6024Z"/>
  <path class="cls-1" d="M7.8446,11.4774c-.498,0-.939-.0918-1.3228-.2754-.3843-.1826-.6846-.4385-.9014-.7676s-.3252-.7139-.3252-1.1553c0-.2588.0425-.5381.1279-.8364.0854-.2988.2041-.5405.3574-.7256l1.2212-.7466c-.3022-.2808-.519-.5332-.6509-.7573-.1313-.2241-.2124-.4292-.2427-.6162-.0303-.1865-.0449-.3579-.0449-.5146,0-.3555.1152-.6743.3462-.957.2314-.2827.5449-.5068.9414-.6724.3965-.165.8418-.248,1.3359-.248.48,0,.9097.0679,1.2905.2031.3809.1348.6807.3252.9014.5703.2207.2456.3301.5371.3301.875,0,.2876-.041.5518-.127.792-.0859.2397-.1934.4487-.3262.6265l-1.3223.7842,1.7441,1.7119c.1562-.2349.2773-.4292.3633-.584.084-.1548.1484-.2871.1895-.3975s.0703-.2148.0879-.3145l-.8477-.3311v-.4956h2.8906v.4956l-.6621.272c-.0684.0288-.1406.0747-.2207.1387-.0801.0645-.1465.1426-.2012.2349-.1426.249-.3047.498-.4902.7466-.1855.249-.375.5049-.5703.7676l.9551.875c.0664.0605.1426.125.2266.1943.082.0693.1699.1182.2578.1465l.9336.2832v.5068h-1.9199c-.2305,0-.4199-.0127-.5684-.0371-.1465-.0244-.2852-.082-.416-.1709-.1289-.0889-.2871-.2275-.4707-.416l-.3105-.3096c-.2275.2314-.4531.4297-.6777.5947-.2236.166-.4829.292-.7778.3789-.2954.0869-.6636.1309-1.104.1309ZM8.4789,10.2558c.3379,0,.6021-.0312.792-.0938.1899-.0615.3862-.1699.5894-.3223l-2.3252-2.3252c-.1387.1743-.2344.3779-.2881.6108-.0532.2329-.0801.4912-.0801.7759,0,.2734.0596.5127.1787.7168.1191.2051.2783.3623.4775.4727.1992.1094.418.165.6558.165ZM8.9271,6.5492c.2524-.2202.4268-.4434.522-.6694.0967-.2256.1445-.5127.1445-.8613,0-.2134-.0684-.4214-.2051-.624-.1372-.2026-.353-.3037-.6479-.3037-.2812,0-.4917.0903-.6323.272-.1401.1812-.2104.3945-.2104.6396,0,.2598.0898.5088.269.7471.1797.2383.4331.5049.7603.7998Z"/>
  <g>
    <path class="cls-1" d="M.2835,20.7532v-.7012h.3926l.0679.209c.0078.0244.02.0469.0376.0693.0171.0215.0342.0391.0508.0508.064.0469.1455.0908.2451.1309.1001.04.2158.0596.3472.0596.0786,0,.1499-.0137.2134-.041.0635-.0264.1147-.0645.1533-.1133.0386-.0479.0576-.1045.0576-.1699,0-.0918-.0312-.1621-.0942-.209-.0625-.0469-.1592-.0879-.2891-.125-.0742-.0205-.1562-.042-.2461-.0645-.0903-.0215-.1709-.042-.2417-.0625-.2241-.0615-.3896-.1553-.4971-.2812-.1074-.125-.1611-.2666-.1611-.4238,0-.1768.0571-.3301.1714-.459.1143-.1279.2646-.2275.4517-.2969.1865-.0693.3892-.1045.6069-.1045.1948,0,.3662.0117.5137.0342s.2812.0508.4009.084v.71h-.3906l-.0679-.2266c-.0093-.0215-.0229-.041-.041-.0596-.0181-.0176-.0356-.0322-.0522-.043-.0513-.0342-.1216-.0674-.2109-.0977s-.1831-.0449-.2812-.0449c-.1147,0-.2036.0264-.2656.0781-.062.0527-.0928.1162-.0928.1914,0,.0879.0366.1611.1099.2207.0732.0586.1787.1074.3164.1455.0786.0205.1606.042.2451.0645.085.0215.1621.043.2314.0645.2119.0635.3701.1543.4756.2715.105.1172.1577.2617.1577.4346,0,.2041-.0601.3711-.1792.501-.1196.1299-.2749.2256-.4653.2871s-.3936.0918-.6079.0918c-.2061,0-.4038-.0195-.5938-.0576-.1895-.0391-.3457-.0781-.4683-.1172Z"/>
    <path class="cls-1" d="M5.0028,18.2942v.4053h-.9072v1.3779c0,.0742.0264.1387.0801.1953.0537.0557.1172.0986.1899.1299.0723.0312.1353.0469.188.0469.0483,0,.1113-.0029.1885-.0068.0771-.0049.1348-.0098.1724-.0156h.1113v.2334c-.0381.0215-.1011.0518-.1895.0908s-.1909.0752-.3076.1064c-.1167.0322-.2358.0479-.3584.0479-.1484,0-.2861-.0215-.4141-.0645-.1279-.0439-.231-.1045-.3086-.1846-.0781-.0791-.1167-.1729-.1167-.2803v-1.6768h-.4155v-.3604c.0923-.0117.1719-.0254.2393-.04.0674-.0137.1206-.0439.1602-.0889.0391-.0459.062-.1211.0679-.2246l.0229-.3613.6899-.0977v.7676h.9072Z"/>
    <path class="cls-1" d="M6.4481,20.9124c-.1543,0-.2944-.0293-.4209-.0879-.1265-.0576-.2271-.1504-.3027-.2764s-.1138-.29-.1138-.4912v-1.2412c0-.0322-.0088-.0557-.0269-.0703-.0186-.0156-.0381-.0273-.0591-.0361l-.293-.125v-.2197l1.146-.1182v1.5088c0,.1387.0103.2578.0308.3574.0205.0986.0615.1738.1235.2256s.1553.0771.2793.0771c.1313,0,.2349-.0176.3105-.0518.0757-.0352.1348-.085.1772-.1504v-1.3975c0-.0322-.0088-.0547-.0264-.0693-.0171-.0146-.0391-.0264-.0645-.0371l-.2881-.125v-.2197l1.1436-.1182v2.0967c0,.0312.0088.0547.0259.0684.0176.0146.0381.0273.0625.0381l.2905.125v.2197l-1.0913.1152v-.4219h-.0342c-.1001.124-.2139.2256-.3413.3057-.1279.0791-.3037.1191-.5278.1191Z"/>
    <path class="cls-1" d="M9.8382,20.9124c-.2129,0-.3965-.0547-.5498-.1621-.1543-.1084-.2715-.2559-.3545-.4443-.082-.1875-.123-.3994-.123-.6367,0-.2656.0498-.5068.1494-.7246s.2432-.3916.4287-.5225c.1865-.1309.4072-.1963.6631-.1963.1523,0,.2852.0273.3975.083.1133.0547.2021.1201.2666.1963l-.0225-.1865v-.5713c0-.0303-.0078-.0537-.0244-.0684-.0176-.0156-.0371-.0283-.0615-.0391l-.3857-.1699v-.2197h1.2344v3.0928c0,.0303.0098.0527.0293.0684.0195.0166.04.0293.0615.0381l.292.125v.2197l-1.0957.1152v-.4326h-.0381c-.0938.1377-.1963.2363-.3076.2979s-.2168.0996-.3174.1152c-.1006.0146-.1816.0225-.2422.0225ZM10.2308,20.4563c.0459,0,.0977-.0078.1562-.0244.0596-.0156.1172-.041.1729-.0752.0557-.0352.1006-.0801.1338-.1348v-1.4717c-.0332-.0264-.0781-.0459-.1357-.0605s-.1152-.0254-.1738-.0322-.1055-.0098-.1416-.0098c-.1455,0-.2646.0391-.3574.1172-.0928.0771-.1621.1816-.207.3115-.0439.1299-.0664.2734-.0664.4316,0,.1777.0205.3389.0635.4824.042.1445.1084.2578.1992.3408s.21.125.3564.125Z"/>
    <path class="cls-1" d="M12.1663,20.8645v-.2129l.377-.1367c.0283-.0107.0508-.0234.0674-.0381.0166-.0156.0254-.0381.0254-.0684v-1.543c0-.0303-.0088-.0527-.0264-.0684-.0176-.0146-.0391-.0273-.0645-.0381l-.375-.1475v-.2207l1.2305-.0469v2.0645c0,.0303.0088.0537.0273.0703.0176.0166.0381.0283.0605.0361l.377.1367v.2129h-1.6992ZM12.972,18.0051c-.0771,0-.1533-.0186-.2285-.0547-.0752-.0371-.1367-.0879-.1875-.1504-.0498-.0625-.0742-.1328-.0742-.21,0-.125.0488-.2207.1484-.2842.0986-.0645.2129-.0967.3418-.0967.1514,0,.2734.0293.3672.0869.0938.0586.1406.1465.1406.2646,0,.083-.0244.1582-.0723.2256-.0488.0674-.1123.1211-.1895.1602-.0781.0391-.1602.0586-.2461.0586Z"/>
    <path class="cls-1" d="M15.5921,20.928c-.2754,0-.5176-.0518-.7256-.1562-.209-.1045-.3721-.2578-.4883-.459s-.1748-.4463-.1748-.7344c0-.2666.0576-.502.1738-.7061.1152-.2041.2793-.3643.4912-.4785.2119-.1152.4619-.1729.751-.1729.3135,0,.5723.0605.7773.1816s.3574.2832.459.4883c.1016.2041.1523.4297.1523.6777,0,.2637-.0576.498-.1729.7021-.1143.2051-.2783.3662-.4902.4824-.2109.1162-.4629.1748-.7529.1748ZM15.6244,20.5627c.1104,0,.2012-.0273.2744-.083.0723-.0547.1299-.1289.1719-.2207.043-.0928.0723-.1943.0898-.3057s.0264-.2236.0264-.3369c0-.1826-.0195-.3525-.0576-.5078-.0391-.1562-.1025-.2822-.1895-.3779-.0879-.0967-.2051-.1445-.3525-.1445-.1104,0-.2012.0273-.2744.082-.0723.0547-.1299.127-.1719.2178-.043.0908-.0723.1914-.0898.3018s-.0264.2217-.0264.334c0,.124.0098.2471.0283.3691.0195.123.0508.2344.0957.3359s.1055.1826.1836.2441.1748.0918.292.0918Z"/>
  </g>
</svg>