<svg width="12" height="12" viewBox="0 0 12 12" fill="none" xmlns="http://www.w3.org/2000/svg">
<g clip-path="url(#clip0_4_375)">
<rect width="12" height="12" fill="#FAFDF6"/>
<g clip-path="url(#clip1_4_375)">
<path d="M8.52986 5.45516C8.5969 5.25315 8.62007 5.03916 8.59783 4.82748C8.57558 4.6158 8.50843 4.4113 8.40086 4.22764C8.24135 3.94998 7.99778 3.73014 7.70527 3.59984C7.41276 3.46954 7.08643 3.4355 6.77333 3.50263C6.59549 3.30479 6.36874 3.15722 6.11583 3.07474C5.86293 2.99225 5.59277 2.97775 5.33249 3.03269C5.07221 3.08764 4.83097 3.21009 4.63298 3.38776C4.43499 3.56542 4.28723 3.79205 4.20453 4.04489C3.99593 4.08765 3.79886 4.17445 3.62649 4.29948C3.45413 4.42451 3.31043 4.58489 3.20501 4.7699C3.04375 5.0471 2.97483 5.36841 3.00822 5.68737C3.04161 6.00632 3.17558 6.30639 3.39076 6.54418C3.32338 6.74611 3.2999 6.9601 3.32189 7.17184C3.34388 7.38358 3.41083 7.58818 3.51827 7.77195C3.67799 8.04972 3.92178 8.2696 4.2145 8.3999C4.50723 8.5302 4.83376 8.56419 5.14705 8.49697C5.28835 8.65617 5.462 8.78339 5.65639 8.87014C5.85079 8.95688 6.06145 9.00114 6.27432 8.99998C6.59524 9.00027 6.90796 8.89857 7.16733 8.70957C7.4267 8.52057 7.61931 8.25404 7.71734 7.94846C7.92587 7.90558 8.12286 7.81874 8.29517 7.69372C8.46748 7.5687 8.61116 7.40838 8.71661 7.22344C8.87596 6.94667 8.94371 6.6266 8.91017 6.309C8.87662 5.9914 8.74351 5.69254 8.52986 5.45516ZM6.27432 8.60747C6.01155 8.60791 5.75702 8.51586 5.5553 8.34747L5.59055 8.32721L6.78533 7.6377C6.81501 7.62025 6.83965 7.59538 6.85683 7.56553C6.87401 7.53568 6.88314 7.50189 6.88333 7.46745V5.78317L7.38834 6.07517C7.39083 6.07644 7.393 6.07828 7.39465 6.08053C7.3963 6.08279 7.39739 6.08541 7.39784 6.08817V7.48395C7.39718 7.78172 7.2786 8.06711 7.06804 8.27767C6.85748 8.48823 6.57209 8.60681 6.27432 8.60747ZM3.85927 7.57595C3.7274 7.34835 3.68003 7.08152 3.72552 6.82244L3.76102 6.84369L4.95679 7.53345C4.98636 7.55079 5.02002 7.55993 5.0543 7.55993C5.08857 7.55993 5.12223 7.55079 5.1518 7.53345L6.61257 6.69118V7.2742C6.61247 7.27724 6.61167 7.28021 6.61024 7.2829C6.60881 7.28559 6.60679 7.28791 6.60432 7.2897L5.3943 7.98746C5.1361 8.13611 4.82947 8.17626 4.5417 8.09911C4.25392 8.02197 4.0085 7.83382 3.85927 7.57595ZM3.54427 4.9739C3.67701 4.7448 3.88655 4.57007 4.13578 4.48064V5.89992C4.1353 5.93424 4.14405 5.96805 4.16111 5.99782C4.17818 6.0276 4.20293 6.05224 4.23278 6.06917L5.68656 6.90769L5.18155 7.19969C5.17881 7.20114 5.17577 7.20189 5.17267 7.20189C5.16958 7.20189 5.16653 7.20114 5.1638 7.19969L3.95627 6.50318C3.69845 6.35385 3.51033 6.10842 3.4331 5.82066C3.35588 5.53289 3.39585 5.22625 3.54427 4.9679V4.9739ZM7.69359 5.93767L6.23532 5.09091L6.73908 4.7999C6.74181 4.79845 6.74486 4.7977 6.74795 4.7977C6.75104 4.7977 6.75409 4.79845 6.75683 4.7999L7.96435 5.49766C8.14909 5.60415 8.29971 5.761 8.39861 5.9499C8.49752 6.1388 8.54063 6.35195 8.52291 6.56444C8.50519 6.77693 8.42736 6.97999 8.29853 7.1499C8.16969 7.31981 7.99517 7.44954 7.79535 7.52395V6.10442C7.7943 6.07019 7.78437 6.03682 7.76653 6.00759C7.74869 5.97835 7.72356 5.95426 7.69359 5.93767ZM8.1961 5.18191L8.16085 5.16066L6.96733 4.46514C6.93757 4.4477 6.9037 4.4385 6.8692 4.4385C6.83471 4.4385 6.80083 4.4477 6.77108 4.46514L5.31155 5.30741V4.72415C5.31125 4.72121 5.31174 4.71825 5.31297 4.71557C5.3142 4.71288 5.31613 4.71058 5.31855 4.7089L6.52607 4.01214C6.71116 3.90561 6.92275 3.85397 7.1361 3.86325C7.34945 3.87253 7.55576 3.94234 7.73091 4.06452C7.90605 4.1867 8.04281 4.35621 8.12518 4.55324C8.20756 4.75027 8.23216 4.96667 8.1961 5.17716V5.18191ZM5.03604 6.21568L4.53104 5.92467C4.5285 5.92315 4.52633 5.92108 4.52468 5.91861C4.52304 5.91615 4.52196 5.91335 4.52154 5.91042V4.51864C4.52195 4.30517 4.5831 4.09621 4.69784 3.91619C4.81258 3.73616 4.97618 3.5925 5.16951 3.50198C5.36285 3.41146 5.57795 3.37781 5.7897 3.40498C6.00144 3.43214 6.20109 3.51899 6.36532 3.65538L6.32982 3.67538L5.1353 4.36489C5.10557 4.38232 5.08087 4.40717 5.06365 4.43702C5.04642 4.46687 5.03726 4.50068 5.03704 4.53515L5.03604 6.21568ZM5.3103 5.62442L5.96081 5.24941L6.61257 5.62442V6.37418L5.96331 6.74919L5.31155 6.37418L5.3103 5.62442Z" fill="black"/>
</g>
</g>
<defs>
<clipPath id="clip0_4_375">
<rect width="12" height="12" rx="6" fill="white"/>
</clipPath>
<clipPath id="clip1_4_375">
<rect width="6" height="6" fill="white" transform="translate(3 3)"/>
</clipPath>
</defs>
</svg>
