<?xml version="1.0" encoding="UTF-8"?>
<svg id="Layer_1" data-name="Layer 1" xmlns="http://www.w3.org/2000/svg" viewBox="0 0 45.3723 47.5643">
  <defs>
    <style>
      .cls-1 {
        fill: #000;
      }

      .cls-1, .cls-2 {
        stroke-width: 0px;
      }

      .cls-2 {
        fill: #fff;
      }
    </style>
  </defs>
  <path class="cls-2" d="M22.2748,0c3.4676.2457,6.6569.4235,9.6851,1.8119,1.0471.4801,2.0206,1.2174,3.0159,1.8658.4183.2725.7869.6683,1.2105.924,2.4861,1.5005,4.2941,3.9656,5.9405,6.6188,2.7924,4.4998,3.6226,9.6596,3.0967,15.2356-.2106,2.2322-.7571,4.3352-1.5243,6.3554-.572,1.5062-1.0822,3.0594-1.7526,4.4947-1.1803,2.5269-2.9192,4.3163-4.9581,5.7615-2.7463,1.9467-5.6588,3.2525-8.7404,3.9694-3.869.9-7.7147.5545-11.5722-.3349-4.1039-.9462-7.689-3.165-10.9301-6.36-1.1409-1.1247-2.083-2.4608-2.7074-4.13-.3521-.9413-.7524-1.8556-1.1521-2.7676-.9755-2.2259-1.5739-4.5767-1.8064-7.1171-.228-2.4907.0564-4.87.5441-7.2609,1.0413-5.1055,3.3246-9.1368,6.6066-12.3843,1.6724-1.6548,3.4774-2.9411,5.4742-3.8523.6707-.3061,1.2968-.7632,1.9479-1.1387,1.1521-.6645,2.3531-1.0775,3.6304-1.1337.4048-.0178.8055-.1515,1.2103-.2059,1.0192-.1369,2.0397-.2588,2.7815-.3519ZM35.6744,24.4285c-.0229-.2859-.0451-.7334-.0965-1.1756-.2454-2.1127-.9191-3.9398-2.2935-5.2871-.7433-.7286-1.5325-.815-2.3739-.2658-.7043.4597-1.2193,1.1413-1.5886,2.0112-.8176,1.9257-.8286,3.9827-.6622,6.0793.1875,2.3634,1.2949,3.7944,2.9728,4.644.2591.1312.5946.2123.8533.1248.843-.2851,1.6079-.7745,2.1795-1.6483.8267-1.2638.9352-2.7822,1.0092-4.4824ZM9.3021,24.6707c-.0259,1.7661.2141,2.9581.6978,4.0741.4647,1.0722,1.7343,2.0347,2.591,1.8389,1.2856-.2939,2.3737-1.0286,2.984-2.5705.6613-1.6706.9363-3.4406.6352-5.2766-.1679-1.024-.3637-2.0952-.7637-2.9944-.9452-2.1248-2.6749-2.3797-4.0855-.7194-1.4131,1.6633-1.9819,3.7776-2.0588,5.6479ZM8.3429,34.5505c.4095.9396.944,1.0708,1.5425,1.0834.6676.0141,1.3395.0327,1.9995.1433.2752.0461.5764.2722.7734.5278.3137.4071.5449.9124.8203,1.3674.5891.973,1.4543,1.0654,2.1427.2059.3103-.3875.6107-.8019.8523-1.2566.2187-.4117.4321-.4295.7782-.2862.567.2346,1.1507.5061,1.737.5476,1.3995.099,2.8046.0746,4.2075.0966,1.1574.0182,2.3105.0185,3.4484-.3408.5039-.1591.9957-.0505,1.4092.4297.31.3599.6467.6869.9877,1.0012.699.6443,1.2995.5555,1.8301-.2873.3013-.4786.5711-.9896.8382-1.4998.2194-.419.4882-.8067.9086-.6269,1.1903.5089,2.1222-.233,3.062-.9252.1235-.091.2188-.4392.1807-.6201-.0374-.1776-.2608-.4094-.4038-.4108-.2431-.0024-.5122.1035-.7264.2588-.7077.5131-1.4331.7195-2.244.4516-.734-.2425-1.1081-.0412-1.5379.7482-.2658.4882-.5275.9809-.773,1.4852-.2216.455-.4681.5068-.7861.1555-.3047-.3366-.643-.631-.9227-.9965-.4681-.6116-.9825-.8034-1.6327-.5134-.4408.1966-.9023.4319-1.3581.4443-1.858.0504-3.7188.076-5.5755-.0023-.8478-.0357-1.7108-.1447-2.5069-.6723-.831-.5506-1.2574-.3216-1.7904.6863-.2702.5111-.6139.9615-.961,1.4957-.4954-.8195-.9134-1.5182-1.338-2.2108-.3003-.49-.676-.6774-1.1919-.6222-.7091.0758-1.4269.0154-2.1405.036-.5205.015-1.0403.0667-1.6293.1067Z"/>
  <path class="cls-1" d="M35.6744,24.4285c-.074,1.7002-.1824,3.2186-1.0092,4.4824-.5716.8738-1.3365,1.3632-2.1795,1.6483-.2587.0875-.5942.0064-.8533-.1248-1.6779-.8496-2.7853-2.2806-2.9728-4.644-.1663-2.0967-.1553-4.1537.6622-6.0793.3693-.8699.8843-1.5514,1.5886-2.0112.8414-.5492,1.6306-.4628,2.3739.2658,1.3744,1.3473,2.0481,3.1744,2.2935,5.2871.0514.4422.0736.8896.0965,1.1756Z"/>
  <path class="cls-1" d="M9.3021,24.6707c.0769-1.8703.6457-3.9846,2.0588-5.6479,1.4106-1.6603,3.1403-1.4054,4.0855.7194.4.8992.5958,1.9704.7637,2.9944.3011,1.836.026,3.606-.6352,5.2766-.6103,1.5419-1.6983,2.2766-2.984,2.5705-.8567.1959-2.1264-.7667-2.591-1.8389-.4836-1.116-.7236-2.308-.6978-4.0741Z"/>
  <path class="cls-1" d="M8.3429,34.5505c.589-.04,1.1088-.0917,1.6293-.1067.7136-.0206,1.4314.0398,2.1405-.036.5159-.0551.8916.1323,1.1919.6222.4245.6925.8426,1.3913,1.338,2.2108.3471-.5343.6907-.9846.961-1.4957.5329-1.0079.9594-1.2369,1.7904-.6863.7962.5276,1.6591.6365,2.5069.6723,1.8567.0783,3.7176.0528,5.5755.0023.4558-.0124.9174-.2478,1.3581-.4443.6503-.29,1.1646-.0982,1.6327.5134.2797.3655.618.6599.9227.9965.318.3513.5645.2996.7861-.1555.2456-.5043.5072-.997.773-1.4852.4298-.7893.8038-.9907,1.5379-.7482.8109.2679,1.5362.0615,2.244-.4516.2142-.1553.4833-.2612.7264-.2588.1431.0014.3664.2333.4038.4108.0381.1808-.0571.5291-.1807.6201-.9398.6921-1.8717,1.434-3.062.9252-.4205-.1798-.6893.208-.9086.6269-.2671.5102-.5369,1.0212-.8382,1.4998-.5306.8429-1.1311.9317-1.8301.2873-.341-.3143-.6777-.6413-.9877-1.0012-.4136-.4802-.9053-.5888-1.4092-.4297-1.1379.3592-2.291.3589-3.4484.3408-1.4029-.022-2.808.0024-4.2075-.0966-.5863-.0415-1.17-.3129-1.737-.5476-.3462-.1433-.5595-.1255-.7782.2862-.2416.4548-.542.8691-.8523,1.2566-.6883.8596-1.5536.7671-2.1427-.2059-.2754-.4549-.5066-.9602-.8203-1.3674-.197-.2556-.4982-.4817-.7734-.5278-.66-.1106-1.3319-.1292-1.9995-.1433-.5985-.0127-1.133-.1439-1.5425-1.0834Z"/>
</svg>