<svg width="25" height="25" viewBox="0 0 25 25" fill="none" xmlns="http://www.w3.org/2000/svg">
<path d="M4.69995 1H20.2C22.55 1 24.45 2.9 24.45 5.25V20.15C24.45 22.5 22.55 24.4 20.2 24.4H4.69995C2.34995 24.4 0.449951 22.5 0.449951 20.15V5.25C0.449951 2.9 2.34995 1 4.69995 1Z" fill="#001E36"/>
<path d="M5.84985 17.41V7.12001C5.84985 7.05001 5.87985 7.01001 5.94985 7.01001C6.11985 7.01001 6.27985 7.01001 6.50985 7.00001C6.74985 6.99001 6.99985 6.99001 7.26985 6.98001C7.53985 6.97001 7.82985 6.97001 8.13985 6.96001C8.44985 6.95001 8.74985 6.95001 9.04985 6.95001C9.86985 6.95001 10.5499 7.05001 11.1099 7.26001C11.6099 7.43001 12.0699 7.71001 12.4499 8.08001C12.7699 8.40001 13.0199 8.79001 13.1799 9.22001C13.3299 9.64001 13.4099 10.07 13.4099 10.52C13.4099 11.38 13.2099 12.09 12.8099 12.65C12.4099 13.21 11.8499 13.63 11.1999 13.87C10.5199 14.12 9.76985 14.21 8.94985 14.21C8.70985 14.21 8.54985 14.21 8.44985 14.2C8.34985 14.19 8.20985 14.19 8.01985 14.19V17.4C8.02985 17.47 7.97985 17.53 7.90985 17.54C7.89985 17.54 7.88985 17.54 7.86985 17.54H5.96985C5.88985 17.54 5.84985 17.5 5.84985 17.41ZM8.02985 8.94001V12.3C8.16985 12.31 8.29985 12.32 8.41985 12.32H8.94985C9.33985 12.32 9.72985 12.26 10.0999 12.14C10.4199 12.05 10.6999 11.86 10.9199 11.61C11.1299 11.36 11.2299 11.02 11.2299 10.58C11.2399 10.27 11.1599 9.96001 10.9999 9.69001C10.8299 9.43001 10.5899 9.23001 10.2999 9.12001C9.92985 8.97001 9.52985 8.91001 9.11985 8.92001C8.85985 8.92001 8.62985 8.92001 8.43985 8.93001C8.23985 8.92001 8.09985 8.93001 8.02985 8.94001Z" fill="#31A8FF"/>
<path d="M19.65 11.69C19.35 11.53 19.03 11.42 18.69 11.35C18.32 11.27 17.95 11.22 17.57 11.22C17.37 11.21 17.16 11.24 16.97 11.29C16.84 11.32 16.73 11.39 16.66 11.49C16.61 11.57 16.58 11.67 16.58 11.76C16.58 11.85 16.62 11.94 16.68 12.02C16.77 12.13 16.89 12.22 17.02 12.29C17.25 12.41 17.49 12.52 17.73 12.62C18.27 12.8 18.79 13.05 19.27 13.35C19.6 13.56 19.87 13.84 20.06 14.18C20.22 14.5 20.3 14.85 20.29 15.21C20.3 15.68 20.16 16.15 19.9 16.54C19.62 16.94 19.23 17.25 18.78 17.43C18.29 17.64 17.69 17.75 16.97 17.75C16.51 17.75 16.06 17.71 15.61 17.62C15.26 17.56 14.91 17.45 14.59 17.3C14.52 17.26 14.47 17.19 14.48 17.11V15.37C14.48 15.34 14.49 15.3 14.52 15.28C14.55 15.26 14.58 15.27 14.61 15.29C15 15.52 15.41 15.68 15.85 15.78C16.23 15.88 16.63 15.93 17.03 15.93C17.41 15.93 17.68 15.88 17.86 15.79C18.02 15.72 18.13 15.55 18.13 15.37C18.13 15.23 18.05 15.1 17.89 14.97C17.73 14.84 17.4 14.69 16.91 14.5C16.4 14.32 15.93 14.08 15.49 13.78C15.18 13.56 14.92 13.27 14.73 12.93C14.57 12.61 14.49 12.26 14.5 11.91C14.5 11.48 14.62 11.07 14.84 10.7C15.09 10.3 15.46 9.97999 15.89 9.77999C16.36 9.53999 16.95 9.42999 17.66 9.42999C18.07 9.42999 18.49 9.45999 18.9 9.51999C19.2 9.55999 19.49 9.63999 19.76 9.74999C19.8 9.75999 19.84 9.79999 19.86 9.83999C19.87 9.87999 19.88 9.91999 19.88 9.95999V11.59C19.88 11.63 19.86 11.67 19.83 11.69C19.74 11.71 19.69 11.71 19.65 11.69Z" fill="#31A8FF"/>
</svg>
