<svg width="12" height="12" viewBox="0 0 12 12" fill="none" xmlns="http://www.w3.org/2000/svg">
<g clip-path="url(#clip0_4_368)">
<rect width="12" height="12" fill="#FAFDF6"/>
<path opacity="0.3" d="M4.35425 6.43967L4.79425 4.79767L7.64691 5.562L7.20691 7.204L4.35425 6.43967Z" fill="black"/>
<path d="M8.66675 3.33334H3.33341C2.96675 3.33334 2.66675 3.63334 2.66675 4.00001V8.00001C2.66675 8.36668 2.96675 8.66668 3.33341 8.66668H8.66675C9.03341 8.66668 9.33341 8.36668 9.33341 8.00001V4.00001C9.33341 3.63334 9.03341 3.33334 8.66675 3.33334ZM3.33341 8.00001V4.00001H4.31675L3.54008 6.91001L7.60675 8.00001H3.33341ZM7.20675 7.20334L4.35675 6.44001L4.79341 4.80001L7.64675 5.56334L7.20675 7.20334ZM8.66675 8.00001H7.68341L8.46341 5.09001L4.39341 4.00001H8.66675V8.00001Z" fill="black"/>
</g>
<defs>
<clipPath id="clip0_4_368">
<rect width="12" height="12" rx="6" fill="white"/>
</clipPath>
</defs>
</svg>
