<?xml version="1.0" encoding="UTF-8"?>
<svg id="Layer_1" data-name="Layer 1" xmlns="http://www.w3.org/2000/svg" viewBox="0 0 19.3107 13.3113">
  <defs>
    <style>
      .cls-1 {
        fill: #fff;
        stroke-width: 0px;
      }
    </style>
  </defs>
  <path class="cls-1" d="M19.3107,0v.3551c-.2431.0192-.4479.0864-.6143.2016s-.3135.2911-.4415.5279c-.0384.0768-.2399.5727-.6047,1.4877l-4.079,10.7391h-.3743l-3.2248-8.3876-3.5512,8.3876h-.3551L1.7852,2.6874c-.4351-1.0685-.739-1.7148-.9118-1.9387s-.4639-.3551-.8734-.3935v-.3551h5.6435v.3551c-.4543.0128-.7566.0816-.907.2064s-.2255.2799-.2255.4655c0,.2431.1568.7582.4703,1.5452l2.553,6.3145,2.0443-4.9324-.5375-1.3821c-.2943-.755-.5215-1.2589-.6814-1.5116s-.3439-.4335-.5519-.5423-.5135-.1632-.9166-.1632v-.3551h6.3057v.3551c-.4415.0064-.7582.0416-.9502.1056-.1344.0448-.2399.12-.3167.2255s-.1152.2255-.1152.3599c0,.1472.144.5983.4319,1.3533l2.3706,6.161,2.1211-5.5755c.2239-.5759.3615-.9694.4127-1.1805s.0768-.4063.0768-.5855c0-.2623-.0896-.4687-.2687-.6191s-.5215-.2319-1.027-.2447v-.3551h3.3784Z"/>
</svg>